<?xml version="1.0" encoding="UTF-8"?>
<!DOCTYPE svg PUBLIC "-//W3C//DTD SVG 1.0//EN" "http://www.w3.org/TR/2001/REC-SVG-20010904/DTD/svg10.dtd">
<!-- Creator: CorelDRAW X7 -->
<svg xmlns="http://www.w3.org/2000/svg" xml:space="preserve" width="1000px" height="1000px" version="1.0" style="shape-rendering:geometricPrecision; text-rendering:geometricPrecision; image-rendering:optimizeQuality; fill-rule:evenodd; clip-rule:evenodd"
viewBox="0 0 1000 1000"
 xmlns:xlink="http://www.w3.org/1999/xlink">
 <defs>
  <style type="text/css">
   <![CDATA[
    .str0 {stroke:#555555;stroke-width:29.9961}
    .fil1 {fill:none}
    .fil0 {fill:#FF0033;fill-rule:nonzero}
   ]]>
  </style>
 </defs>
 <g id="Layer_x0020_1">
  <metadata id="CorelCorpID_0Corel-Layer"/>
  <path class="fil0" d="M732 813c-59,35 -130,52 -211,52 -110,0 -199,-35 -267,-104 -68,-68 -101,-158 -101,-268 0,-122 36,-220 109,-295 72,-74 170,-111 292,-111 67,0 127,12 179,36l0 156c-52,-38 -107,-58 -166,-58 -71,0 -129,24 -174,72 -46,49 -69,112 -69,189 0,77 22,138 65,183 43,44 100,66 172,66 60,0 117,-21 171,-64l0 146z"/>
  <path class="fil0" d="M489 573l0 -75 -74 0 0 -31 74 0 0 -74 32 0 0 74 74 0 0 31 -74 0 0 75 -32 0z"/>
  <path id="1" class="fil0" d="M711 573l0 -75 -74 0 0 -31 74 0 0 -74 31 0 0 74 75 0 0 31 -75 0 0 75 -31 0z"/>
  <path class="fil1 str0" d="M15 15l970 0 0 970 -970 0 0 -970z"/>
 </g>
</svg>
